<?xml version="1.0" encoding="UTF-8"?>
<svg xmlns="http://www.w3.org/2000/svg" xmlns:xlink="http://www.w3.org/1999/xlink" viewBox="0 0 500 500" width="500px" height="500px">
<g id="surface25078494">
<path style=" stroke:none;fill-rule:nonzero;fill:rgb(100%,100%,100%);fill-opacity:1;" d="M 185.644531 20 C 116.363281 20 60 76.363281 60 145.644531 L 60 150 L 440 150 L 440 145.644531 C 440 76.363281 383.636719 20 314.355469 20 Z M 60 170 L 60 192.773438 C 54.050781 196.242188 50 202.628906 50 210 L 50 270.039062 C 37.378906 279.988281 30 296.292969 30 314.824219 C 30 330.304688 36.132812 345.160156 46.582031 355.351562 L 73.613281 383.59375 C 72.261719 385.855469 71.109375 388.222656 70.390625 390.800781 C 68.082031 399.101562 69.46875 407.996094 74.238281 415.195312 L 86.582031 433.847656 C 110.203125 472.066406 135.125 479.550781 170.214844 479.550781 L 197.226562 479.550781 C 211.796875 479.550781 224.175781 470.042969 228.4375 456.933594 L 230 456.933594 L 230 460 C 230 465.519531 234.480469 470 240 470 C 245.519531 470 250 465.519531 250 460 C 250 465.519531 254.480469 470 260 470 C 265.519531 470 270 465.519531 270 460 L 270 456.933594 L 271.5625 456.933594 C 275.824219 470.042969 288.203125 479.550781 302.773438 479.550781 L 329.785156 479.550781 C 364.875 479.550781 389.800781 472.082031 413.261719 434.121094 L 425.761719 415.195312 C 430.53125 407.996094 431.9375 399.101562 429.628906 390.800781 C 428.910156 388.222656 427.746094 385.84375 426.40625 383.59375 L 453.183594 355.605469 C 463.863281 345.164062 470 330.3125 470 314.824219 C 470 296.285156 462.621094 279.988281 450 270.039062 L 450 210 C 450 202.628906 445.949219 196.242188 440 192.773438 L 440 170 Z M 99.394531 200 L 210.058594 200 C 220.136719 200 223.566406 213.511719 214.707031 218.339844 L 131.074219 268.808594 C 126.414062 271.359375 120.578125 269.679688 117.96875 265.039062 L 90.9375 214.550781 C 87.277344 208.050781 91.945312 200 99.394531 200 Z M 289.667969 200 L 400.332031 200 C 407.773438 200 412.46875 208.050781 408.808594 214.550781 L 381.757812 265.039062 C 379.148438 269.679688 373.3125 271.347656 368.652344 268.808594 L 285.039062 218.339844 C 276.179688 213.511719 279.589844 200 289.667969 200 Z M 249.6875 267.714844 C 264.21875 267.765625 278.582031 273.046875 290.800781 282.578125 L 392.304688 361.699219 L 282.460938 309.570312 C 262.320312 300.011719 237.667969 300.011719 217.539062 309.570312 L 107.695312 361.71875 L 209.199219 282.578125 C 221.417969 273.046875 235.796875 267.773438 249.6875 267.714844 Z M 83.535156 291.464844 C 86.09375 291.464844 88.652344 292.441406 90.605469 294.394531 C 94.515625 298.304688 94.515625 304.625 90.605469 308.535156 L 83.535156 315.605469 C 81.585938 317.554688 79.023438 318.535156 76.464844 318.535156 C 73.90625 318.535156 71.34375 317.554688 69.394531 315.605469 C 65.496094 311.707031 65.496094 305.375 69.394531 301.464844 L 76.464844 294.394531 C 78.417969 292.441406 80.976562 291.464844 83.535156 291.464844 Z M 416.464844 291.464844 C 419.023438 291.464844 421.582031 292.441406 423.535156 294.394531 L 430.605469 301.464844 C 434.503906 305.363281 434.503906 311.695312 430.605469 315.605469 C 428.65625 317.554688 426.09375 318.535156 423.535156 318.535156 C 420.976562 318.535156 418.414062 317.554688 416.464844 315.605469 L 409.394531 308.535156 C 405.484375 304.625 405.484375 298.304688 409.394531 294.394531 C 411.347656 292.441406 413.90625 291.464844 416.464844 291.464844 Z M 103.535156 311.464844 C 106.09375 311.464844 108.652344 312.441406 110.605469 314.394531 C 114.515625 318.304688 114.515625 324.625 110.605469 328.535156 L 103.535156 335.605469 C 101.585938 337.554688 99.023438 338.535156 96.464844 338.535156 C 93.90625 338.535156 91.34375 337.554688 89.394531 335.605469 C 85.496094 331.707031 85.496094 325.375 89.394531 321.464844 L 96.464844 314.394531 C 98.417969 312.441406 100.976562 311.464844 103.535156 311.464844 Z M 396.464844 311.464844 C 399.023438 311.464844 401.582031 312.441406 403.535156 314.394531 L 410.605469 321.464844 C 414.503906 325.363281 414.503906 331.695312 410.605469 335.605469 C 408.65625 337.554688 406.09375 338.535156 403.535156 338.535156 C 400.976562 338.535156 398.414062 337.554688 396.464844 335.605469 L 389.394531 328.535156 C 385.484375 324.625 385.484375 318.304688 389.394531 314.394531 C 391.347656 312.441406 393.90625 311.464844 396.464844 311.464844 Z M 240.15625 355 L 260 355 C 268.378906 355 275.164062 362 274.824219 370.449219 C 274.285156 384.050781 286.761719 394.6875 300.371094 394.6875 L 320.917969 394.6875 C 339.617188 394.6875 354.84375 410.359375 354.84375 429.628906 L 354.84375 429.980469 C 354.671875 446.308594 340.410156 459.058594 324.082031 459.296875 C 313.992188 459.445312 302.617188 459.550781 302.617188 459.550781 C 295.648438 459.550781 289.980469 453.902344 289.980469 446.933594 L 289.980469 416.679688 C 289.980469 411.160156 285.5 406.679688 279.980469 406.679688 C 274.460938 406.679688 269.980469 411.160156 269.980469 416.679688 L 269.980469 400 C 269.980469 394.480469 265.5 390 259.980469 390 C 254.460938 390 249.980469 394.480469 249.980469 400 C 249.980469 394.480469 245.5 390 239.980469 390 C 234.460938 390 229.980469 394.480469 229.980469 400 L 229.980469 416.679688 C 229.980469 411.160156 225.5 406.679688 219.980469 406.679688 C 214.460938 406.679688 209.980469 411.160156 209.980469 416.679688 L 209.980469 446.796875 C 209.980469 453.828125 204.246094 459.550781 197.226562 459.550781 C 197.226562 459.550781 185.945312 459.464844 175.976562 459.355469 C 159.566406 459.183594 145.171875 446.410156 145 430 L 145 429.628906 C 145 410.367188 160.214844 394.6875 178.925781 394.6875 L 200.15625 394.6875 C 214.007812 394.6875 225.238281 383.3125 225 369.414062 C 224.859375 361.335938 232.078125 355 240.15625 355 Z M 180.527344 415.214844 C 172.242188 415.214844 165.527344 421.929688 165.527344 430.214844 C 165.527344 438.5 172.242188 445.214844 180.527344 445.214844 C 188.8125 445.214844 195.527344 438.5 195.527344 430.214844 C 195.527344 421.929688 188.8125 415.214844 180.527344 415.214844 Z M 319.316406 415.214844 C 311.03125 415.214844 304.316406 421.929688 304.316406 430.214844 C 304.316406 438.5 311.03125 445.214844 319.316406 445.214844 C 327.601562 445.214844 334.316406 438.5 334.316406 430.214844 C 334.316406 421.929688 327.601562 415.214844 319.316406 415.214844 Z M 319.316406 415.214844 "/>
</g>
</svg>
